<svg width="914" height="577" viewBox="0 0 914 577" fill="none" xmlns="http://www.w3.org/2000/svg">
<g clip-path="url(#clip0_43_9900)">
<path d="M898.503 227.14L671.102 0L468.262 202.607L306.692 41.2233C283.516 18.1309 246.022 18.1309 222.915 41.2233L0 263.881L203.493 467.106L207.922 471.53C216.094 479.692 224.574 487.34 233.307 494.553C241.833 501.424 250.612 507.849 259.585 513.873C264.071 516.88 268.615 519.795 273.193 522.573C277.771 525.374 282.406 528.06 287.099 530.621C289.433 531.913 291.768 533.182 294.126 534.428C298.853 536.874 303.602 539.229 308.409 541.504C310.801 542.624 313.193 543.745 315.608 544.808C322.876 548.02 330.189 551.004 337.605 553.748C352.392 559.235 367.477 563.739 382.745 567.283C451.472 583.23 523.85 579.584 590.953 556.308C612.183 548.935 632.841 539.595 652.744 528.323C660.184 524.082 667.531 519.566 674.742 514.788C689.174 505.231 703.08 494.565 716.333 482.767C721.884 477.874 727.343 472.799 732.654 467.517L898.503 301.835C919.173 281.189 919.173 247.751 898.503 227.14ZM672.224 406.334L672.189 406.3C615.628 465.334 544.486 496.44 471.329 496.44C440.977 496.44 410.304 491.101 380.135 480.161C335.614 464.065 297.182 437.76 266.658 403.99C222.755 355.302 195.39 291.146 190.228 219.4L158.846 206.688L218.451 139.011L296.918 209.752L259.276 215.616C263.236 269.815 283.333 318.229 315.459 355.211C338.658 381.87 368.152 402.596 402.373 415.159C479.375 443.384 561.997 422.293 623.502 358.64C623.502 358.64 623.594 358.56 623.628 358.514L672.659 405.865C672.521 406.002 672.373 406.128 672.258 406.265C672.258 406.265 672.224 406.3 672.212 406.311L672.224 406.334ZM733.569 373.136L562.317 202.115L566.357 198.08L737.609 369.135L733.569 373.147V373.136ZM768.877 342.121L597.659 171.101L601.677 167.065L772.929 338.12L768.888 342.133L768.877 342.121ZM804.219 309.803L632.967 138.783L637.007 134.747L808.225 305.802L804.208 309.815L804.219 309.803ZM839.527 267.345L668.275 96.2905L672.315 92.2551L843.567 263.31L839.527 267.345Z" fill="white"/>
</g>
<defs>
<clipPath id="clip0_43_9900">
<rect width="914" height="577" fill="white"/>
</clipPath>
</defs>
</svg>
